<svg width="100" height="73" viewBox="0 0 100 73" fill="none" xmlns="http://www.w3.org/2000/svg">
<g clip-path="url(#clip0_687_20196)">
<path d="M77.34 58.537C74.2 58.537 71.66 61.1118 71.66 64.2699C71.66 67.428 74.2 69.9827 77.34 69.9827C78.9 69.9827 80.34 69.339 81.36 68.3131C82.38 67.2671 83.02 65.8389 83.02 64.2699C83.02 61.1118 80.48 58.537 77.34 58.537ZM98.36 45.4015H50.52C50.1 45.4015 49.72 45.2205 49.46 44.959L40.74 36.1886C40.44 35.907 40.3 35.5047 40.3 35.1225V4.0238C40.3 3.17895 40.98 2.51514 41.8 2.51514H88.1C88.52 2.51514 88.88 2.67606 89.16 2.95768L99.56 13.4178C99.86 13.6994 100 14.1017 100 14.4839V43.8928C100 44.8182 99.26 45.4417 98.36 45.4015ZM51.14 42.3842H97V15.1075L87.48 5.53247H43.3V34.4989L51.14 42.3842ZM3 60.3474H9.88C11.36 57.3904 14.36 55.5196 17.64 55.5196C20.94 55.5196 23.94 57.3904 25.42 60.3474H32.3V24.2198H20.74C12.68 24.2198 10.84 28.4441 7.78 34.8408C6.56 37.315 5.36 39.9904 4.46 42.5451C3.58 45.0394 3 47.4734 3 49.6057V60.3474ZM98.5 50.712C99.32 50.712 100 51.3758 100 52.2207V61.856C100 62.6808 99.32 63.3647 98.5 63.3647H85.98C86.02 63.6664 86.02 63.948 86.02 64.2699C86.02 66.6838 85.06 68.8562 83.48 70.4454C81.9 72.0144 79.74 73 77.34 73C74.44 73 71.78 71.5719 70.16 69.1781C68.54 71.5719 65.86 73 62.96 73C58.16 73 54.28 69.0775 54.28 64.2699C54.28 63.948 54.3 63.6664 54.32 63.3647H26.28C26.32 63.6664 26.34 63.9682 26.34 64.2699C26.34 66.6838 25.36 68.8562 23.8 70.4454C22.22 72.0144 20.04 73 17.64 73C15.24 73 13.08 72.0345 11.5 70.4454C9.94 68.8764 8.96 66.6838 8.96 64.2699C8.96 63.948 8.98 63.6463 9 63.3647H1.5C0.68 63.3647 0 62.6808 0 61.856V49.6057C0 47.1113 0.66 44.3555 1.64 41.5393C2.74 38.4013 4.14 35.4845 5.58 32.4873C8.62 26.1509 11 21.2025 20.74 21.2025H35.3C33.6 19.4927 35.3 23.8175 35.3 21.2025V50.712H98.5ZM85.1 60.3474H97V53.7294H35.3V60.3474H55.2C56.62 57.491 59.56 55.5196 62.96 55.5196C65.86 55.5196 68.54 56.968 70.16 59.3617C71.78 56.968 74.44 55.5196 77.34 55.5196C80.74 55.5196 83.68 57.491 85.1 60.3474ZM62.96 58.537C59.82 58.537 57.28 61.1118 57.28 64.2699C57.28 67.428 59.82 69.9827 62.96 69.9827C66.1 69.9827 68.66 67.428 68.66 64.2699C68.66 61.1118 66.1 58.537 62.96 58.537ZM11.96 64.2699C11.96 65.8389 12.6 67.2671 13.62 68.3131C14.66 69.339 16.08 69.9827 17.64 69.9827C19.22 69.9827 20.64 69.339 21.68 68.3131C22.7 67.2671 23.34 65.8389 23.34 64.2699C23.34 63.6463 23.24 62.9423 23.02 62.3589C22.22 60.0658 20.06 58.537 17.64 58.537C14.46 58.537 11.96 61.152 11.96 64.2699Z" fill="black"/>
<path d="M11.4598 45.4015C10.3998 45.4015 9.6798 44.3353 10.0598 43.3497C11.3598 39.3668 13.0398 36.0477 14.9398 32.3666C16.0798 30.1136 18.0998 29.1682 20.5398 29.1682H25.8798C26.7198 29.1682 27.3798 29.832 27.3798 30.6769V43.8928C27.3798 44.7175 26.7198 45.4015 25.8798 45.4015H11.4598ZM13.5598 42.3841H24.3998V32.1654H20.5398C19.2398 32.1654 18.2198 32.5275 17.5998 33.7344C16.1398 36.5909 14.6798 39.3668 13.5598 42.3841Z" fill="black"/>
<path d="M65.0453 30.0413C65.7347 30.0413 66.3064 30.5819 66.3064 31.2699C66.3064 31.9415 65.7347 32.4985 65.0453 32.4985H59.2611C58.5549 32.4985 58 31.9415 58 31.2699C58 31.0078 58.0841 30.7621 58.2186 30.5491L61.8169 24.488L60.1018 24.9303C59.4292 25.1105 58.7398 24.7174 58.5717 24.0621C58.3867 23.4069 58.7903 22.7352 59.4629 22.555L64.1037 21.3428C64.7763 21.179 65.4657 21.5558 65.6506 22.211L66.8949 26.7486C67.0631 27.4039 66.6763 28.0755 66.0037 28.2393C65.3312 28.4195 64.6418 28.0264 64.4568 27.3711L64.0028 25.7002L61.4302 30.0413H65.0453ZM69.5012 30.5819L72.8977 27.2729C73.4021 26.7978 74.1924 26.7978 74.6801 27.2729C75.1845 27.7479 75.1845 28.5342 74.6801 29.0093L73.4358 30.2215H78.5642L76.7651 27.1746C76.412 26.6012 76.6137 25.8477 77.2191 25.5037C77.8244 25.176 78.5979 25.3726 78.9341 25.9623L81.8263 30.844C82.1794 31.4337 81.9776 32.1709 81.3723 32.5149C81.1705 32.6295 80.9519 32.6787 80.7501 32.6787H73.4358L74.6801 33.9073C75.1845 34.3823 75.1845 35.1523 74.6801 35.6437C74.1924 36.1188 73.4021 36.1188 72.8977 35.6437L69.5012 32.3183C69.0135 31.8432 69.0135 31.0733 69.5012 30.5819ZM74.7809 23.1448L70.1401 21.9325C69.4675 21.7523 69.0808 21.0807 69.249 20.4255C69.4339 19.7702 70.1233 19.3934 70.7959 19.5573L72.511 20.0159L69.9383 15.6749L68.1392 18.7218C67.7861 19.3115 67.0126 19.5081 66.4241 19.1805C65.8188 18.8365 65.617 18.0829 65.9533 17.4932L68.8454 12.6116C69.1985 12.0218 69.972 11.8253 70.5773 12.1693C70.7959 12.3003 70.964 12.4805 71.0649 12.6771L74.6801 18.7873L75.1509 17.1164C75.319 16.4612 76.0084 16.068 76.681 16.2482C77.3536 16.4284 77.7571 17.1001 77.5722 17.7553L76.3279 22.2765V22.3093L76.3111 22.3421V22.3585L76.2943 22.3912L76.2774 22.424V22.4567L76.2606 22.4731L76.2438 22.5059L76.227 22.5386L76.2102 22.555L76.1934 22.5878L76.1766 22.6206L76.1597 22.6369L76.1429 22.6697L76.1261 22.6861L76.1093 22.7188L76.0925 22.7352L76.0757 22.7516L76.0589 22.7844L76.0252 22.8008L76.0084 22.8171L75.9916 22.8499L75.9748 22.8663L75.9412 22.8827L75.9243 22.899L75.8907 22.9154L75.8739 22.9482L75.8571 22.9646L75.8234 22.9809L75.8066 22.9973L75.773 23.0137H75.7394L75.7226 23.0301L75.6889 23.0465L75.6721 23.0629L75.6385 23.0792L75.6049 23.0956H75.588L75.5544 23.112H75.5208L75.504 23.1284L75.4703 23.1448H75.4031L75.3863 23.1611H75.3526L75.319 23.1775H75.1677L75.1341 23.1939H75.0668L75.05 23.1775H74.9155L74.8818 23.1611H74.8482L74.8314 23.1448H74.7809Z" fill="#33CC66"/>
</g>
<defs>
<clipPath id="clip0_687_20196">
<rect width="100" height="73" fill="white"/>
</clipPath>
</defs>
</svg>
