<svg width="18" height="20" viewBox="0 0 18 20" fill="none" xmlns="http://www.w3.org/2000/svg">
<path d="M12.7324 0C13.0828 0 13.3729 0.262204 13.4189 0.602539L13.4248 0.697266V1.4873C16.2678 1.68224 18.0089 3.5187 18 6.48535V14.9746C17.9998 18.1192 16.0448 20 12.9033 20H5.09668C1.95876 20 0 18.0865 0 14.9033V6.48535C0.000171446 3.51975 1.74712 1.6827 4.58398 1.4873V0.697266C4.5842 0.312287 4.89338 0.000240514 5.27539 0C5.62573 0 5.91588 0.26222 5.96191 0.602539L5.96777 0.697266V1.46875H12.04V0.697266C12.0403 0.312204 12.3503 0.000106126 12.7324 0ZM1.38477 8.2832V14.9033C1.38477 17.3059 2.71394 18.6045 5.09668 18.6045H12.9033C15.2941 18.6045 16.6151 17.3337 16.6152 14.9746V8.2832H1.38477ZM4.9082 14.1357C5.29052 14.1358 5.60059 14.4487 5.60059 14.834C5.60044 15.1871 5.33977 15.4792 5.00195 15.5254L4.89941 15.5312C4.51723 15.5312 4.20719 15.2191 4.20703 14.834C4.20703 14.4808 4.46775 14.1888 4.80566 14.1426L4.9082 14.1357ZM9.0127 14.1357C9.39504 14.1357 9.70508 14.4487 9.70508 14.834C9.70493 15.1871 9.44427 15.4792 9.10645 15.5254L9.0127 15.5312C8.62193 15.5312 8.31168 15.2191 8.31152 14.834C8.31152 14.4808 8.57231 14.1888 8.91016 14.1426L9.0127 14.1357ZM13.1084 14.1357C13.4907 14.1357 13.8008 14.4487 13.8008 14.834C13.8006 15.187 13.5408 15.4791 13.2031 15.5254L13.1084 15.5312C12.7178 15.531 12.4084 15.219 12.4082 14.834C12.4082 14.4808 12.6689 14.1888 13.0068 14.1426L13.1084 14.1357ZM4.9082 10.5205C5.29052 10.5206 5.60059 10.8335 5.60059 11.2188C5.60037 11.5718 5.33973 11.863 5.00195 11.9092L4.89941 11.916C4.51728 11.9159 4.20726 11.6038 4.20703 11.2188C4.20703 10.8655 4.46776 10.5735 4.80566 10.5273L4.9082 10.5205ZM9.0127 10.5205C9.39504 10.5205 9.70508 10.8334 9.70508 11.2188C9.70487 11.5718 9.44422 11.863 9.10645 11.9092L9.0127 11.916C8.62198 11.916 8.31175 11.6038 8.31152 11.2188C8.31152 10.8656 8.57232 10.5736 8.91016 10.5273L9.0127 10.5205ZM13.1084 10.5205C13.4907 10.5205 13.8008 10.8334 13.8008 11.2188C13.8006 11.5716 13.5407 11.8628 13.2031 11.9092L13.1084 11.916C12.7179 11.9158 12.4084 11.6037 12.4082 11.2188C12.4082 10.8655 12.6689 10.5735 13.0068 10.5273L13.1084 10.5205ZM5.96777 3.75879C5.96777 4.1441 5.65774 4.45605 5.27539 4.45605C4.9251 4.45583 4.63567 4.19391 4.58984 3.85352L4.58398 3.75879V2.88574C2.51981 3.05856 1.38492 4.30609 1.38477 6.48535V6.8877H16.6152V6.4834C16.6218 4.30264 15.4933 3.05683 13.4248 2.88477V3.75879C13.4248 4.1441 13.1148 4.45605 12.7324 4.45605C12.382 4.45596 12.0927 4.19398 12.0469 3.85352L12.04 3.75879V2.86426H5.96777V3.75879Z" fill="#4B5563"/>
</svg>
