<svg width="18" height="22" viewBox="0 0 18 22" fill="none" xmlns="http://www.w3.org/2000/svg">
<path d="M16.155 5.1865L13.023 2.0545C12.4391 1.46791 11.7448 1.00283 10.9801 0.686155C10.2155 0.369476 9.39564 0.207472 8.568 0.209503H4.5C2.016 0.200503 0 2.2165 0 4.7005V17.3005C0 19.7845 2.016 21.8005 4.5 21.8005H13.5C15.984 21.8005 18 19.7845 18 17.3005V9.6415C18 7.9585 17.343 6.3745 16.155 5.1865ZM14.886 6.4555C15.174 6.7435 15.417 7.0585 15.615 7.4005H11.709C11.214 7.4005 10.809 6.9955 10.809 6.5005V2.5945C11.151 2.7925 11.466 3.0355 11.754 3.3235L14.886 6.4555ZM16.2 17.3005C16.2 18.7855 14.985 20.0005 13.5 20.0005H4.5C3.015 20.0005 1.8 18.7855 1.8 17.3005V4.7005C1.8 3.2155 3.015 2.0005 4.5 2.0005H8.559C8.703 2.0005 8.856 2.0005 9 2.0185V6.5005C9 7.9855 10.215 9.2005 11.7 9.2005H16.182C16.2 9.3445 16.2 9.4885 16.2 9.6415V17.3005ZM12.15 11.0005H5.85C5.25326 11.0005 4.68097 11.2376 4.25901 11.6595C3.83705 12.0815 3.6 12.6538 3.6 13.2505V15.9505C3.6 16.5472 3.83705 17.1195 4.25901 17.5415C4.68097 17.9635 5.25326 18.2005 5.85 18.2005H12.15C12.7467 18.2005 13.319 17.9635 13.741 17.5415C14.1629 17.1195 14.4 16.5472 14.4 15.9505V13.2505C14.4 12.6538 14.1629 12.0815 13.741 11.6595C13.319 11.2376 12.7467 11.0005 12.15 11.0005ZM12.6 15.9505C12.6 16.2025 12.402 16.4005 12.15 16.4005H5.85C5.598 16.4005 5.4 16.2025 5.4 15.9505V13.2505C5.4 12.9985 5.598 12.8005 5.85 12.8005H12.15C12.402 12.8005 12.6 12.9985 12.6 13.2505V15.9505ZM3.6 8.3005C3.6 7.8055 4.005 7.4005 4.5 7.4005H6.3C6.795 7.4005 7.2 7.8055 7.2 8.3005C7.2 8.7955 6.795 9.2005 6.3 9.2005H4.5C4.005 9.2005 3.6 8.7955 3.6 8.3005Z" fill="currentColor"/>
</svg>
