<svg width="70" height="29" viewBox="0 0 70 29" fill="none" xmlns="http://www.w3.org/2000/svg">
<path d="M1.71 11V0.499999H2.82V11H1.71ZM8.27637 11V1.46H4.58637V0.499999H13.0764V1.46H9.38637V11H8.27637ZM4.605 28.09C3.825 28.09 3.075 27.965 2.355 27.715C1.645 27.455 1.095 27.125 0.705 26.725L1.14 25.87C1.51 26.23 2.005 26.535 2.625 26.785C3.255 27.025 3.915 27.145 4.605 27.145C5.265 27.145 5.8 27.065 6.21 26.905C6.63 26.735 6.935 26.51 7.125 26.23C7.325 25.95 7.425 25.64 7.425 25.3C7.425 24.89 7.305 24.56 7.065 24.31C6.835 24.06 6.53 23.865 6.15 23.725C5.77 23.575 5.35 23.445 4.89 23.335C4.43 23.225 3.97 23.11 3.51 22.99C3.05 22.86 2.625 22.69 2.235 22.48C1.855 22.27 1.545 21.995 1.305 21.655C1.075 21.305 0.96 20.85 0.96 20.29C0.96 19.77 1.095 19.295 1.365 18.865C1.645 18.425 2.07 18.075 2.64 17.815C3.21 17.545 3.94 17.41 4.83 17.41C5.42 17.41 6.005 17.495 6.585 17.665C7.165 17.825 7.665 18.05 8.085 18.34L7.71 19.225C7.26 18.925 6.78 18.705 6.27 18.565C5.77 18.425 5.285 18.355 4.815 18.355C4.185 18.355 3.665 18.44 3.255 18.61C2.845 18.78 2.54 19.01 2.34 19.3C2.15 19.58 2.055 19.9 2.055 20.26C2.055 20.67 2.17 21 2.4 21.25C2.64 21.5 2.95 21.695 3.33 21.835C3.72 21.975 4.145 22.1 4.605 22.21C5.065 22.32 5.52 22.44 5.97 22.57C6.43 22.7 6.85 22.87 7.23 23.08C7.62 23.28 7.93 23.55 8.16 23.89C8.4 24.23 8.52 24.675 8.52 25.225C8.52 25.735 8.38 26.21 8.1 26.65C7.82 27.08 7.39 27.43 6.81 27.7C6.24 27.96 5.505 28.09 4.605 28.09ZM13.9235 28.075C13.1635 28.075 12.4785 27.905 11.8685 27.565C11.2685 27.215 10.7935 26.74 10.4435 26.14C10.0935 25.53 9.91852 24.835 9.91852 24.055C9.91852 23.265 10.0935 22.57 10.4435 21.97C10.7935 21.37 11.2685 20.9 11.8685 20.56C12.4685 20.22 13.1535 20.05 13.9235 20.05C14.7035 20.05 15.3935 20.22 15.9935 20.56C16.6035 20.9 17.0785 21.37 17.4185 21.97C17.7685 22.57 17.9435 23.265 17.9435 24.055C17.9435 24.835 17.7685 25.53 17.4185 26.14C17.0785 26.74 16.6035 27.215 15.9935 27.565C15.3835 27.905 14.6935 28.075 13.9235 28.075ZM13.9235 27.13C14.4935 27.13 14.9985 27.005 15.4385 26.755C15.8785 26.495 16.2235 26.135 16.4735 25.675C16.7335 25.205 16.8635 24.665 16.8635 24.055C16.8635 23.435 16.7335 22.895 16.4735 22.435C16.2235 21.975 15.8785 21.62 15.4385 21.37C14.9985 21.11 14.4985 20.98 13.9385 20.98C13.3785 20.98 12.8785 21.11 12.4385 21.37C11.9985 21.62 11.6485 21.975 11.3885 22.435C11.1285 22.895 10.9985 23.435 10.9985 24.055C10.9985 24.665 11.1285 25.205 11.3885 25.675C11.6485 26.135 11.9985 26.495 12.4385 26.755C12.8785 27.005 13.3735 27.13 13.9235 27.13ZM20.1178 28V16.87H21.1828V28H20.1178ZM27.4011 28.075C26.7311 28.075 26.1461 27.95 25.6461 27.7C25.1461 27.45 24.7561 27.075 24.4761 26.575C24.2061 26.075 24.0711 25.45 24.0711 24.7V20.125H25.1361V24.58C25.1361 25.42 25.3411 26.055 25.7511 26.485C26.1711 26.905 26.7561 27.115 27.5061 27.115C28.0561 27.115 28.5311 27.005 28.9311 26.785C29.3411 26.555 29.6511 26.225 29.8611 25.795C30.0811 25.365 30.1911 24.85 30.1911 24.25V20.125H31.2561V28H30.2361V25.84L30.4011 26.23C30.1511 26.81 29.7611 27.265 29.2311 27.595C28.7111 27.915 28.1011 28.075 27.4011 28.075ZM36.7143 28.075C35.9743 28.075 35.4043 27.875 35.0043 27.475C34.6043 27.075 34.4043 26.51 34.4043 25.78V18.385H35.4693V25.72C35.4693 26.18 35.5843 26.535 35.8143 26.785C36.0543 27.035 36.3943 27.16 36.8343 27.16C37.3043 27.16 37.6943 27.025 38.0043 26.755L38.3793 27.52C38.1693 27.71 37.9143 27.85 37.6143 27.94C37.3243 28.03 37.0243 28.075 36.7143 28.075ZM32.9943 21.01V20.125H37.8693V21.01H32.9943ZM40.318 28V20.125H41.383V28H40.318ZM40.858 18.385C40.638 18.385 40.453 18.31 40.303 18.16C40.153 18.01 40.078 17.83 40.078 17.62C40.078 17.41 40.153 17.235 40.303 17.095C40.453 16.945 40.638 16.87 40.858 16.87C41.078 16.87 41.263 16.94 41.413 17.08C41.563 17.22 41.638 17.395 41.638 17.605C41.638 17.825 41.563 18.01 41.413 18.16C41.273 18.31 41.088 18.385 40.858 18.385ZM47.5563 28.075C46.7963 28.075 46.1113 27.905 45.5013 27.565C44.9013 27.215 44.4263 26.74 44.0763 26.14C43.7263 25.53 43.5513 24.835 43.5513 24.055C43.5513 23.265 43.7263 22.57 44.0763 21.97C44.4263 21.37 44.9013 20.9 45.5013 20.56C46.1013 20.22 46.7863 20.05 47.5563 20.05C48.3363 20.05 49.0263 20.22 49.6263 20.56C50.2363 20.9 50.7113 21.37 51.0513 21.97C51.4013 22.57 51.5763 23.265 51.5763 24.055C51.5763 24.835 51.4013 25.53 51.0513 26.14C50.7113 26.74 50.2363 27.215 49.6263 27.565C49.0163 27.905 48.3263 28.075 47.5563 28.075ZM47.5563 27.13C48.1263 27.13 48.6313 27.005 49.0713 26.755C49.5113 26.495 49.8563 26.135 50.1063 25.675C50.3663 25.205 50.4963 24.665 50.4963 24.055C50.4963 23.435 50.3663 22.895 50.1063 22.435C49.8563 21.975 49.5113 21.62 49.0713 21.37C48.6313 21.11 48.1313 20.98 47.5713 20.98C47.0113 20.98 46.5113 21.11 46.0713 21.37C45.6313 21.62 45.2813 21.975 45.0213 22.435C44.7613 22.895 44.6313 23.435 44.6313 24.055C44.6313 24.665 44.7613 25.205 45.0213 25.675C45.2813 26.135 45.6313 26.495 46.0713 26.755C46.5113 27.005 47.0063 27.13 47.5563 27.13ZM57.7706 20.05C58.4106 20.05 58.9706 20.175 59.4506 20.425C59.9406 20.665 60.3206 21.035 60.5906 21.535C60.8706 22.035 61.0106 22.665 61.0106 23.425V28H59.9456V23.53C59.9456 22.7 59.7356 22.075 59.3156 21.655C58.9056 21.225 58.3256 21.01 57.5756 21.01C57.0156 21.01 56.5256 21.125 56.1056 21.355C55.6956 21.575 55.3756 21.9 55.1456 22.33C54.9256 22.75 54.8156 23.26 54.8156 23.86V28H53.7506V20.125H54.7706V22.285L54.6056 21.88C54.8556 21.31 55.2556 20.865 55.8056 20.545C56.3556 20.215 57.0106 20.05 57.7706 20.05ZM66.0023 28.075C65.3523 28.075 64.7373 27.985 64.1573 27.805C63.5773 27.615 63.1223 27.38 62.7923 27.1L63.2723 26.26C63.5923 26.5 64.0023 26.71 64.5023 26.89C65.0023 27.06 65.5273 27.145 66.0773 27.145C66.8273 27.145 67.3673 27.03 67.6973 26.8C68.0273 26.56 68.1923 26.245 68.1923 25.855C68.1923 25.565 68.0973 25.34 67.9073 25.18C67.7273 25.01 67.4873 24.885 67.1873 24.805C66.8873 24.715 66.5523 24.64 66.1823 24.58C65.8123 24.52 65.4423 24.45 65.0723 24.37C64.7123 24.29 64.3823 24.175 64.0823 24.025C63.7823 23.865 63.5373 23.65 63.3473 23.38C63.1673 23.11 63.0773 22.75 63.0773 22.3C63.0773 21.87 63.1973 21.485 63.4373 21.145C63.6773 20.805 64.0273 20.54 64.4873 20.35C64.9573 20.15 65.5273 20.05 66.1973 20.05C66.7073 20.05 67.2173 20.12 67.7273 20.26C68.2373 20.39 68.6573 20.565 68.9873 20.785L68.5223 21.64C68.1723 21.4 67.7973 21.23 67.3973 21.13C66.9973 21.02 66.5973 20.965 66.1973 20.965C65.4873 20.965 64.9623 21.09 64.6223 21.34C64.2923 21.58 64.1273 21.89 64.1273 22.27C64.1273 22.57 64.2173 22.805 64.3973 22.975C64.5873 23.145 64.8323 23.28 65.1323 23.38C65.4423 23.47 65.7773 23.545 66.1373 23.605C66.5073 23.665 66.8723 23.74 67.2323 23.83C67.6023 23.91 67.9373 24.025 68.2373 24.175C68.5473 24.315 68.7923 24.52 68.9723 24.79C69.1623 25.05 69.2573 25.395 69.2573 25.825C69.2573 26.285 69.1273 26.685 68.8673 27.025C68.6173 27.355 68.2473 27.615 67.7573 27.805C67.2773 27.985 66.6923 28.075 66.0023 28.075Z" fill="currentColor"/>
</svg>
