<svg viewBox="0 0 77 25" fill="none" xmlns="http://www.w3.org/2000/svg">
<path d="M23.3154 24.37H19.4454L16.7754 21.28C15.2354 22.02 13.5454 22.39 11.7054 22.39C8.52543 22.39 5.88543 21.36 3.78543 19.3C1.68543 17.22 0.63543 14.62 0.63543 11.5C0.63543 8.38 1.68543 5.79 3.78543 3.73C5.88543 1.65 8.52543 0.609998 11.7054 0.609998C14.8854 0.609998 17.5254 1.65 19.6254 3.73C21.7254 5.79 22.7754 8.38 22.7754 11.5C22.7754 13.12 22.4654 14.63 21.8454 16.03C21.2454 17.43 20.3854 18.63 19.2654 19.63L23.3154 24.37ZM11.7054 19.09C12.6854 19.09 13.6154 18.93 14.4954 18.61L9.90543 13.24H13.7754L17.0154 17.02C18.5154 15.56 19.2654 13.72 19.2654 11.5C19.2654 9.34 18.5454 7.54 17.1054 6.1C15.6854 4.64 13.8854 3.91 11.7054 3.91C9.54543 3.91 7.74543 4.64 6.30543 6.1C4.86543 7.54 4.14543 9.34 4.14543 11.5C4.14543 13.66 4.86543 15.47 6.30543 16.93C7.74543 18.37 9.54543 19.09 11.7054 19.09ZM48.1299 24.37H44.2599L41.5899 21.28C40.0499 22.02 38.3599 22.39 36.5199 22.39C33.3399 22.39 30.6999 21.36 28.5999 19.3C26.4999 17.22 25.4499 14.62 25.4499 11.5C25.4499 8.38 26.4999 5.79 28.5999 3.73C30.6999 1.65 33.3399 0.609998 36.5199 0.609998C39.6999 0.609998 42.3399 1.65 44.4399 3.73C46.5399 5.79 47.5899 8.38 47.5899 11.5C47.5899 13.12 47.2799 14.63 46.6599 16.03C46.0599 17.43 45.1999 18.63 44.0799 19.63L48.1299 24.37ZM36.5199 19.09C37.4999 19.09 38.4299 18.93 39.3099 18.61L34.7199 13.24H38.5899L41.8299 17.02C43.3299 15.56 44.0799 13.72 44.0799 11.5C44.0799 9.34 43.3599 7.54 41.9199 6.1C40.4999 4.64 38.6999 3.91 36.5199 3.91C34.3599 3.91 32.5599 4.64 31.1199 6.1C29.6799 7.54 28.9599 9.34 28.9599 11.5C28.9599 13.66 29.6799 15.47 31.1199 16.93C32.5599 18.37 34.3599 19.09 36.5199 19.09ZM76.4586 22H72.9486L70.4886 6.79L63.6786 21.67H62.8086L55.9686 6.79L53.5086 22H49.9986L53.4186 0.999999H56.8086L63.2286 15.28L69.6486 0.999999H73.0686L76.4586 22Z" fill="currentColor"/>
</svg>
