<svg width="24" height="24" viewBox="0 0 24 24" fill="none" xmlns="http://www.w3.org/2000/svg">
<path d="M8.33391 11.9999C8.33391 14.0218 9.97814 15.666 12 15.666C14.0218 15.666 15.6661 14.0218 15.6661 11.9999C15.6661 9.9781 14.0218 8.33386 12 8.33386C9.97814 8.33386 8.33391 9.9781 8.33391 11.9999ZM13.833 11.9999C13.833 13.0109 13.0109 13.833 12 13.833C10.9891 13.833 10.1669 13.0109 10.1669 11.9999C10.1669 10.989 10.9891 10.1669 12 10.1669C13.0109 10.1669 13.833 10.989 13.833 11.9999ZM6.04261 8.33386C6.40734 8.33398 6.75709 8.47899 7.01491 8.73698C7.27273 8.99497 7.41751 9.34482 7.41739 9.70956C7.41727 10.0743 7.27226 10.424 7.01427 10.6819C6.75627 10.9397 6.40643 11.0845 6.04169 11.0843C5.67695 11.0842 5.32721 10.9392 5.06938 10.6812C4.81156 10.4232 4.66679 10.0734 4.66691 9.70864C4.66703 9.3439 4.81204 8.99415 5.07003 8.73633C5.32802 8.47851 5.67787 8.33374 6.04261 8.33386ZM19.3322 14.2912C19.3321 14.4718 19.2965 14.6507 19.2273 14.8175C19.1581 14.9843 19.0568 15.1359 18.929 15.2635C18.8013 15.3912 18.6496 15.4925 18.4828 15.5615C18.3159 15.6306 18.1371 15.6661 17.9565 15.666C17.7759 15.666 17.597 15.6303 17.4302 15.5612C17.2634 15.492 17.1118 15.3906 16.9841 15.2629C16.8565 15.1352 16.7552 14.9835 16.6862 14.8166C16.6171 14.6498 16.5816 14.4709 16.5817 14.2903C16.5818 13.9256 16.7268 13.5758 16.9848 13.318C17.2428 13.0602 17.5926 12.9154 17.9574 12.9155C18.3221 12.9157 18.6719 13.0607 18.9297 13.3187C19.1875 13.5767 19.3323 13.9265 19.3322 14.2912ZM1.00174 12.9165V9.25038C1.00174 6.72353 3.0575 4.66778 5.58435 4.66778H20.2588L19.1232 3.46347C18.967 3.28473 18.8862 3.05243 18.8977 2.81538C18.9093 2.57832 19.0122 2.35495 19.1849 2.19218C19.3577 2.02941 19.5867 1.93992 19.8241 1.9425C20.0614 1.94508 20.2885 2.03952 20.4576 2.206L22.5143 4.38824C23.165 5.03805 23.165 6.12871 22.4951 6.79869L20.4576 8.96167C20.3753 9.04965 20.2763 9.12047 20.1665 9.17005C20.0567 9.21963 19.9381 9.247 19.8177 9.25058C19.6972 9.25416 19.5772 9.23387 19.4647 9.1909C19.3521 9.14792 19.2491 9.0831 19.1617 9.00017C19.074 8.91762 19.0035 8.81861 18.9541 8.7088C18.9047 8.59898 18.8775 8.48051 18.8739 8.36016C18.8703 8.23981 18.8905 8.11994 18.9333 8.00739C18.9761 7.89483 19.0406 7.79181 19.1232 7.70421L20.2578 6.4999H5.58435C4.06842 6.4999 2.83479 7.73354 2.83479 9.24946V12.9155C2.83479 13.1586 2.73822 13.3917 2.56634 13.5636C2.39446 13.7355 2.16134 13.8321 1.91827 13.8321C1.67519 13.8321 1.44207 13.7355 1.27019 13.5636C1.09831 13.3917 1.00174 13.1586 1.00174 12.9155V12.9165ZM22.9982 11.5417V14.7495C22.9982 17.2763 20.9425 19.3321 18.4156 19.3321H3.74122L4.87679 20.5364C5.03294 20.7151 5.11374 20.9474 5.10223 21.1845C5.09072 21.4216 4.98778 21.6449 4.81505 21.8077C4.64232 21.9705 4.41323 22.06 4.17591 22.0574C3.93859 22.0548 3.71149 21.9604 3.54234 21.7939L1.48567 19.6116C0.834938 18.9618 0.834938 17.8712 1.50491 17.2012L3.54234 15.0382C3.62491 14.9506 3.72392 14.8801 3.83373 14.8307C3.94355 14.7814 4.06201 14.7541 4.18235 14.7506C4.30269 14.747 4.42255 14.7671 4.5351 14.8099C4.64765 14.8526 4.75068 14.9171 4.8383 14.9997C4.92592 15.0823 4.99642 15.1813 5.04578 15.2911C5.09513 15.4009 5.12237 15.5194 5.12595 15.6397C5.12952 15.7601 5.10936 15.8799 5.06661 15.9925C5.02386 16.105 4.95936 16.208 4.87679 16.2957L3.74214 17.5H18.4156C19.9316 17.5 21.1652 16.2663 21.1652 14.7504V11.5426C21.1652 11.2995 21.2618 11.0664 21.4336 10.8945C21.6055 10.7226 21.8386 10.6261 22.0817 10.6261C22.3248 10.6261 22.5579 10.7226 22.7298 10.8945C22.9017 11.0664 22.9982 11.2995 22.9982 11.5426V11.5417Z" fill="currentColor"/>
</svg>
